<?xml version="1.0" encoding="UTF-8" standalone="no"?><!DOCTYPE svg PUBLIC "-//W3C//DTD SVG 1.1//EN" "http://www.w3.org/Graphics/SVG/1.1/DTD/svg11.dtd"><svg width="100%" height="100%" viewBox="0 0 567 567" version="1.1" xmlns="http://www.w3.org/2000/svg" xmlns:xlink="http://www.w3.org/1999/xlink" xml:space="preserve" xmlns:serif="http://www.serif.com/" style="fill-rule:evenodd;clip-rule:evenodd;stroke-linejoin:round;stroke-miterlimit:2;"><circle cx="283.061" cy="283.061" r="283.061" style="fill:#009bff;"/><clipPath id="_clip1"><circle cx="283.061" cy="283.061" r="283.061"/></clipPath><g clip-path="url(#_clip1)"><path d="M410.859,221.88c10.467,0 18.965,8.498 18.965,18.965c0,10.468 -8.498,18.966 -18.965,18.966c-10.467,-0 -18.966,-8.498 -18.966,-18.966c0,-10.467 8.499,-18.965 18.966,-18.965Zm52.496,50.963c10.903,-0 19.755,8.852 19.755,19.755c-0,10.903 -8.852,19.755 -19.755,19.755c-10.903,0 -19.755,-8.852 -19.755,-19.755c-0,-10.903 8.852,-19.755 19.755,-19.755Zm-103.98,-103.237c10.903,0 19.755,8.852 19.755,19.755c0,10.904 -8.852,19.756 -19.755,19.756c-10.903,-0 -19.755,-8.852 -19.755,-19.756c-0,-10.903 8.852,-19.755 19.755,-19.755Zm-172.042,137.516c-0.843,-0.208 -1.735,-0.026 -2.429,0.494c-0.695,0.521 -1.119,1.325 -1.157,2.192c-1.345,18.497 -9.46,71.502 -64.687,71.502c-19.896,-0 -36.048,-16.153 -36.048,-36.049c-0,-19.896 16.152,-36.048 36.048,-36.048c18.805,-0 34.266,14.43 35.905,32.812c1.463,16.414 -11.581,24.648 -11.581,24.648c11.02,-2.396 20.411,-19.209 24.601,-40.043c4.001,-20.225 -2.347,-41.113 -16.925,-55.691c-12.871,-12.961 -28.948,-29.037 -35.311,-35.401c-19.361,-19.36 -19.361,-22.821 -0,-42.181c12.284,-12.284 31.982,-10.199 52.658,10.477c72.505,72.505 112.571,112.809 125.134,125.461c1.191,1.204 2.92,1.706 4.571,1.33c1.651,-0.377 2.991,-1.58 3.542,-3.181c1.814,-6.844 0.441,-15.696 -1.322,-22.598c-1.698,-6.519 -5.105,-12.468 -9.868,-17.231c-12.99,-13.058 -42.476,-42.544 -52.009,-52.077c-15.962,-15.962 -19.917,-22.265 -0,-42.181c13.038,-13.038 30.185,-11.996 48.297,6.116l116.291,116.292c8.973,8.972 34.562,35.331 13.856,56.037c-18.019,18.019 -24.161,18.019 -42.181,-0l-56.879,-56.88c-0.7,-0.697 -1.764,-0.878 -2.656,-0.453c-0.892,0.426 -1.42,1.367 -1.319,2.35c0.699,11.473 -0.561,35.874 -19.671,54.983c-18.588,18.588 -23.592,18.588 -42.18,-0l-64.68,-64.68Z" style="fill:#fff;"/></g></svg>