<?xml version="1.0" encoding="UTF-8" standalone="no"?><!DOCTYPE svg PUBLIC "-//W3C//DTD SVG 1.1//EN" "http://www.w3.org/Graphics/SVG/1.1/DTD/svg11.dtd"><svg width="100%" height="100%" viewBox="0 0 446 250" version="1.1" xmlns="http://www.w3.org/2000/svg" xmlns:xlink="http://www.w3.org/1999/xlink" xml:space="preserve" xmlns:serif="http://www.serif.com/" style="fill-rule:evenodd;clip-rule:evenodd;stroke-linejoin:round;stroke-miterlimit:2;"><clipPath id="_clip1"><path d="M410.478,69.903c2.856,1.818 4.927,4.641 5.804,7.912c0.876,3.27 0.494,6.751 -1.071,9.754l-33.024,63.363l21.52,68.135c1.019,3.229 0.791,6.723 -0.64,9.791c-1.431,3.069 -3.961,5.49 -7.09,6.784l-66.027,27.311l-27.311,66.028c-1.294,3.128 -3.715,5.658 -6.784,7.089c-3.069,1.431 -6.562,1.66 -9.791,0.64l-68.135,-21.52l-63.363,33.024c-3.003,1.565 -6.484,1.947 -9.754,1.071c-3.271,-0.876 -6.094,-2.947 -7.912,-5.804l-126.051,-60.282l-69.767,-15.431c-3.306,-0.731 -6.217,-2.675 -8.16,-5.449c-1.942,-2.774 -2.773,-6.175 -2.33,-9.532l9.362,-70.837l-43.526,-56.666c-2.062,-2.685 -3.043,-6.046 -2.748,-9.419c0.295,-3.374 1.845,-6.513 4.342,-8.8l52.704,-48.247l3.082,-71.386c0.146,-3.383 1.555,-6.588 3.95,-8.982c2.394,-2.395 5.599,-3.804 8.982,-3.95l71.386,-3.082l135.936,-52.704c2.287,-2.497 5.426,-4.047 8.8,-4.342c3.373,-0.295 6.734,0.686 9.419,2.748l56.666,43.526l70.837,-9.362c3.357,-0.443 6.758,0.388 9.532,2.33c2.774,1.943 4.718,4.854 5.449,8.161l15.431,69.766l60.282,38.362Z"/></clipPath><g clip-path="url(#_clip1)"><rect x="0" y="0" width="445.357" height="249.309" style="fill:#7594c4;"/></g></svg>